<?xml version="1.0" encoding="UTF-8"?>
<svg width="24px" height="24px" viewBox="0 0 24 24" version="1.1" xmlns="http://www.w3.org/2000/svg" xmlns:xlink="http://www.w3.org/1999/xlink">
    <title>Zomato</title>
    <g id="Zomato" stroke="none" stroke-width="1" fill="none" fill-rule="evenodd">
        <path d="M12,2 C6.48,2 2,6.48 2,12 C2,17.52 6.48,22 12,22 C17.52,22 22,17.52 22,12 C22,6.48 17.52,2 12,2 Z" id="Background" fill="#FFFFFF" fill-rule="nonzero"></path>
        <path d="M7.5,7.5 L16.5,7.5 C17.05,7.5 17.5,7.95 17.5,8.5 L17.5,15.5 C17.5,16.05 17.05,16.5 16.5,16.5 L7.5,16.5 C6.95,16.5 6.5,16.05 6.5,15.5 L6.5,8.5 C6.5,7.95 6.95,7.5 7.5,7.5 Z" id="Z" fill="#E23744" fill-rule="nonzero"></path>
        <path d="M8.5,9.5 L15.5,9.5 L15.5,10.5 L10.5,14.5 L15.5,14.5 L15.5,15.5 L8.5,15.5 L8.5,14.5 L13.5,10.5 L8.5,10.5 L8.5,9.5 Z" id="Z" fill="#FFFFFF" fill-rule="nonzero"></path>
    </g>
</svg> 